<svg width="18" height="16" viewBox="0 0 18 16" fill="none" xmlns="http://www.w3.org/2000/svg">
<path d="M15.1531 15.329C14.9368 15.8767 14.3241 16.1426 13.7847 15.9229C13.7413 15.9053 13.6991 15.8847 13.6585 15.8613L9.609 12.6667L7.01 15.1011C6.88744 15.193 6.72722 15.2153 6.58487 15.1601L7.08309 10.634L7.09904 10.6469L7.10923 10.5575C7.10923 10.5575 14.3961 3.82174 14.693 3.53476C14.9935 3.24851 14.8944 3.18642 14.8944 3.18642C14.9115 2.83728 14.3551 3.18642 14.3551 3.18642L4.70009 9.49289L0.679252 8.10257C0.679252 8.10257 0.0616917 7.87766 0.0035158 7.38318C-0.0576435 6.89248 0.699375 6.62592 0.699375 6.62592L16.6858 0.177898C16.6858 0.177898 18 -0.416576 18 0.567898L15.1531 15.329Z" fill="#D9D9D9"/>
</svg>
